# xmcd CD database file
#
# Track frame offsets:
#	150
#	23572
#	36018
#	50462
#	66626
#	81302
#	97921
#	115344
#	133813
#	145171
#	160511
#	174740
#	186628
#	201274
#	214925
#	226406
#	238860
#	253478
#
# Disc length: 3570 seconds
#
# Revision: 1
# Processed by: cddbd v1.5.2PL0 Copyright (c) Steve Scherf et al.
# Submitted via: CDex 1.51
#
DISCID=110df012
DTITLE=Ella Fitzgerald - New York, New York CD10
DYEAR=2011
DGENRE=Jazz
TTITLE0=I Hear Music
TTITLE1=I've Got You Under My Skin
TTITLE2=Night And Day
TTITLE3='s Wonderful
TTITLE4=Shall We Dance
TTITLE5=It's Only A Papermoon
TTITLE6=Check To Check
TTITLE7=How High The Moon
TTITLE8=Lullaby Of Broadway
TTITLE9=The Lady Is A Tramp
TTITLE10=The Darktown Strutter's Ball
TTITLE11=A-Tisket, A-Tasket
TTITLE12=Holiday In Harlem
TTITLE13=My Heart Belongs To Daddy
TTITLE14=Baby, Won't You Please Come Home
TTITLE15=When My Sugar Walks Down The Street
TTITLE16=Goodnight My Love feat BENNY GOODMAN
TTITLE17=Into Each Life Some Rain Must Fall  feat THE INK SPOTS
EXTD=YEAR: 2011
EXTT0=
EXTT1=
EXTT2=
EXTT3=
EXTT4=
EXTT5=
EXTT6=
EXTT7=
EXTT8=
EXTT9=
EXTT10=
EXTT11=
EXTT12=
EXTT13=
EXTT14=
EXTT15=
EXTT16=
EXTT17=
PLAYORDER=
